<?xml version="1.0" encoding="UTF-8" standalone="no"?>
<!DOCTYPE svg PUBLIC "-//W3C//DTD SVG 1.1//EN"
 "http://www.w3.org/Graphics/SVG/1.1/DTD/svg11.dtd">
<!-- Generated by graphviz version 2.42.4 (0)
 -->
<!-- Title: ArchitectureDiagram Pages: 1 -->
<svg width="1270pt" height="552pt"
 viewBox="0.00 0.00 1270.00 552.00" xmlns="http://www.w3.org/2000/svg" xmlns:xlink="http://www.w3.org/1999/xlink">
<g id="graph0" class="graph" transform="scale(1 1) rotate(0) translate(4 548)">
<title>ArchitectureDiagram</title>
<polygon fill="white" stroke="transparent" points="-4,4 -4,-548 1266,-548 1266,4 -4,4"/>
<g id="clust1" class="cluster">
<title>cluster_infra</title>
<polygon fill="#eedd82" stroke="#eedd82" points="276,-81 276,-141 586,-141 586,-81 276,-81"/>
</g>
<g id="clust5" class="cluster">
<title>cluster_arrows</title>
<polygon fill="none" stroke="gray" stroke-dasharray="5,2" points="982,-405 982,-524 1166,-524 1166,-405 982,-405"/>
<text text-anchor="middle" x="1074" y="-508.8" font-family="Times,serif" font-size="14.00">Dependency Flow</text>
</g>
<g id="clust2" class="cluster">
<title>cluster_service_components</title>
</g>
<g id="clust3" class="cluster">
<title>cluster_controllers</title>
</g>
<g id="clust4" class="cluster">
<title>cluster_legend</title>
<polygon fill="none" stroke="gray" stroke-dasharray="5,2" points="702,-393 702,-536 919,-536 919,-393 702,-393"/>
<text text-anchor="middle" x="810.5" y="-520.8" font-family="Times,serif" font-size="14.00">Architectural Patterns Used</text>
</g>
<!-- External -->
<g id="node1" class="node">
<title>External</title>
<ellipse fill="lightpink" stroke="black" cx="379" cy="-453" rx="65.11" ry="22.76"/>
<text text-anchor="middle" x="379" y="-456.2" font-family="Arial" font-size="11.00">External Clients</text>
<text text-anchor="middle" x="379" y="-444.2" font-family="Arial" font-size="11.00">(REST API)</text>
</g>
<!-- API -->
<g id="node2" class="node">
<title>API</title>
<path fill="lightgreen" stroke="black" d="M405.5,-340C405.5,-340 352.5,-340 352.5,-340 346.5,-340 340.5,-334 340.5,-328 340.5,-328 340.5,-316 340.5,-316 340.5,-310 346.5,-304 352.5,-304 352.5,-304 405.5,-304 405.5,-304 411.5,-304 417.5,-310 417.5,-316 417.5,-316 417.5,-328 417.5,-328 417.5,-334 411.5,-340 405.5,-340"/>
<text text-anchor="middle" x="379" y="-325.2" font-family="Arial" font-size="11.00">API Layer</text>
<text text-anchor="middle" x="379" y="-313.2" font-family="Arial" font-size="11.00">(Controllers)</text>
</g>
<!-- External&#45;&gt;API -->
<g id="edge1" class="edge">
<title>External&#45;&gt;API</title>
<path fill="none" stroke="black" d="M362.07,-431.07C352.68,-418.07 341.92,-400.55 337,-383 333.39,-370.12 339.84,-357.7 348.69,-347.53"/>
<polygon fill="black" stroke="black" points="351.33,-349.83 355.79,-340.22 346.31,-344.95 351.33,-349.83"/>
<text text-anchor="middle" x="373" y="-375" font-family="Arial" font-size="10.00">HTTP Requests</text>
</g>
<!-- External&#45;&gt;API -->
<g id="edge13" class="edge">
<title>External&#45;&gt;API</title>
<path fill="none" stroke="green" stroke-width="2" d="M394.74,-430.93C404.72,-414.99 414.75,-392.42 409,-372 406.72,-363.9 402.68,-355.82 398.29,-348.62"/>
<polygon fill="green" stroke="green" stroke-width="2" points="401.07,-346.47 392.66,-340.04 395.22,-350.32 401.07,-346.47"/>
</g>
<!-- ServiceLayer -->
<g id="node3" class="node">
<title>ServiceLayer</title>
<path fill="lightblue" stroke="black" d="M597,-222C597,-222 525,-222 525,-222 519,-222 513,-216 513,-210 513,-210 513,-198 513,-198 513,-192 519,-186 525,-186 525,-186 597,-186 597,-186 603,-186 609,-192 609,-198 609,-198 609,-210 609,-210 609,-216 603,-222 597,-222"/>
<text text-anchor="middle" x="561" y="-207.2" font-family="Arial" font-size="11.00">Service Layer</text>
<text text-anchor="middle" x="561" y="-195.2" font-family="Arial" font-size="11.00">(Business Logic)</text>
</g>
<!-- API&#45;&gt;ServiceLayer -->
<g id="edge2" class="edge">
<title>API&#45;&gt;ServiceLayer</title>
<path fill="none" stroke="black" d="M393.8,-303.73C406.84,-289.76 427.11,-270.85 449,-261 472.73,-250.32 483.37,-263.89 507,-253 519.1,-247.42 530.46,-238.21 539.61,-229.33"/>
<polygon fill="black" stroke="black" points="542.25,-231.64 546.74,-222.05 537.24,-226.74 542.25,-231.64"/>
<text text-anchor="middle" x="478" y="-264" font-family="Arial" font-size="10.00">Method Calls</text>
</g>
<!-- API&#45;&gt;ServiceLayer -->
<g id="edge14" class="edge">
<title>API&#45;&gt;ServiceLayer</title>
<path fill="none" stroke="green" stroke-width="2" d="M417.72,-311.93C444.56,-304.32 480.16,-291.53 507,-272 522.16,-260.97 535.44,-244.65 545.03,-230.88"/>
<polygon fill="green" stroke="green" stroke-width="2" points="548.13,-232.54 550.79,-222.28 542.31,-228.64 548.13,-232.54"/>
</g>
<!-- OrderingController -->
<g id="node16" class="node">
<title>OrderingController</title>
<path fill="palegreen" stroke="black" d="M373,-222C373,-222 291,-222 291,-222 285,-222 279,-216 279,-210 279,-210 279,-198 279,-198 279,-192 285,-186 291,-186 291,-186 373,-186 373,-186 379,-186 385,-192 385,-198 385,-198 385,-210 385,-210 385,-216 379,-222 373,-222"/>
<text text-anchor="middle" x="332" y="-201.2" font-family="Arial" font-size="11.00">OrderingController</text>
</g>
<!-- API&#45;&gt;OrderingController -->
<g id="edge21" class="edge">
<title>API&#45;&gt;OrderingController</title>
<path fill="none" stroke="black" d="M372.06,-303.88C364.36,-284.86 351.82,-253.91 342.82,-231.7"/>
<polygon fill="black" stroke="black" points="345.96,-230.14 338.96,-222.19 339.47,-232.77 345.96,-230.14"/>
</g>
<!-- MenuController -->
<g id="node17" class="node">
<title>MenuController</title>
<path fill="palegreen" stroke="black" d="M482.5,-222C482.5,-222 415.5,-222 415.5,-222 409.5,-222 403.5,-216 403.5,-210 403.5,-210 403.5,-198 403.5,-198 403.5,-192 409.5,-186 415.5,-186 415.5,-186 482.5,-186 482.5,-186 488.5,-186 494.5,-192 494.5,-198 494.5,-198 494.5,-210 494.5,-210 494.5,-216 488.5,-222 482.5,-222"/>
<text text-anchor="middle" x="449" y="-201.2" font-family="Arial" font-size="11.00">MenuController</text>
</g>
<!-- API&#45;&gt;MenuController -->
<g id="edge22" class="edge">
<title>API&#45;&gt;MenuController</title>
<path fill="none" stroke="black" d="M389.33,-303.88C400.96,-284.61 419.99,-253.07 433.43,-230.81"/>
<polygon fill="black" stroke="black" points="436.46,-232.56 438.63,-222.19 430.47,-228.94 436.46,-232.56"/>
</g>
<!-- RestockingController -->
<g id="node18" class="node">
<title>RestockingController</title>
<path fill="palegreen" stroke="black" d="M121.5,-222C121.5,-222 28.5,-222 28.5,-222 22.5,-222 16.5,-216 16.5,-210 16.5,-210 16.5,-198 16.5,-198 16.5,-192 22.5,-186 28.5,-186 28.5,-186 121.5,-186 121.5,-186 127.5,-186 133.5,-192 133.5,-198 133.5,-198 133.5,-210 133.5,-210 133.5,-216 127.5,-222 121.5,-222"/>
<text text-anchor="middle" x="75" y="-201.2" font-family="Arial" font-size="11.00">RestockingController</text>
</g>
<!-- API&#45;&gt;RestockingController -->
<g id="edge23" class="edge">
<title>API&#45;&gt;RestockingController</title>
<path fill="none" stroke="black" d="M340.18,-314.11C291.99,-304.62 208.09,-284.97 142,-253 128.32,-246.38 114.46,-236.99 102.92,-228.27"/>
<polygon fill="black" stroke="black" points="105.01,-225.46 94.96,-222.09 100.71,-230.99 105.01,-225.46"/>
</g>
<!-- WelcomeController -->
<g id="node19" class="node">
<title>WelcomeController</title>
<path fill="palegreen" stroke="black" d="M248.5,-222C248.5,-222 163.5,-222 163.5,-222 157.5,-222 151.5,-216 151.5,-210 151.5,-210 151.5,-198 151.5,-198 151.5,-192 157.5,-186 163.5,-186 163.5,-186 248.5,-186 248.5,-186 254.5,-186 260.5,-192 260.5,-198 260.5,-198 260.5,-210 260.5,-210 260.5,-216 254.5,-222 248.5,-222"/>
<text text-anchor="middle" x="206" y="-201.2" font-family="Arial" font-size="11.00">WelcomeController</text>
</g>
<!-- API&#45;&gt;WelcomeController -->
<g id="edge24" class="edge">
<title>API&#45;&gt;WelcomeController</title>
<path fill="none" stroke="black" d="M349.88,-303.77C327.67,-290.4 296.5,-271.15 270,-253 258.7,-245.26 246.61,-236.36 236.01,-228.34"/>
<polygon fill="black" stroke="black" points="237.95,-225.42 227.87,-222.14 233.7,-230.98 237.95,-225.42"/>
</g>
<!-- Domain -->
<g id="node4" class="node">
<title>Domain</title>
<path fill="lavender" stroke="black" d="M254,-129C254,-129 182,-129 182,-129 176,-129 170,-123 170,-117 170,-117 170,-105 170,-105 170,-99 176,-93 182,-93 182,-93 254,-93 254,-93 260,-93 266,-99 266,-105 266,-105 266,-117 266,-117 266,-123 260,-129 254,-129"/>
<text text-anchor="middle" x="218" y="-114.2" font-family="Arial" font-size="11.00">Domain Layer</text>
<text text-anchor="middle" x="218" y="-102.2" font-family="Arial" font-size="11.00">(Pizzas, Models)</text>
</g>
<!-- ServiceLayer&#45;&gt;Domain -->
<g id="edge7" class="edge">
<title>ServiceLayer&#45;&gt;Domain</title>
<path fill="none" stroke="black" d="M529.48,-185.9C522.29,-182.71 514.53,-179.82 507,-178 479.76,-171.43 279.41,-181.76 255,-168 243.34,-161.43 234.7,-149.48 228.71,-138.31"/>
<polygon fill="black" stroke="black" points="231.82,-136.7 224.3,-129.24 225.52,-139.76 231.82,-136.7"/>
<text text-anchor="middle" x="303" y="-160" font-family="Arial" font-size="10.00">Creates/Uses Models</text>
</g>
<!-- ServiceLayer&#45;&gt;Domain -->
<g id="edge15" class="edge">
<title>ServiceLayer&#45;&gt;Domain</title>
<path fill="none" stroke="blue" stroke-width="1.5" d="M528.83,-185.95C521.8,-182.84 514.28,-179.96 507,-178 460.88,-165.56 447.18,-175.47 400,-168 377.95,-164.51 372.99,-160.85 351,-157 316.14,-150.89 305.24,-159.15 272,-147 263.7,-143.97 255.38,-139.47 247.84,-134.7"/>
<polygon fill="blue" stroke="blue" stroke-width="1.5" points="249.65,-131.7 239.4,-129.05 245.76,-137.52 249.65,-131.7"/>
</g>
<!-- Factories -->
<g id="node6" class="node">
<title>Factories</title>
<path fill="lightyellow" stroke="black" d="M438.5,-129C438.5,-129 383.5,-129 383.5,-129 377.5,-129 371.5,-123 371.5,-117 371.5,-117 371.5,-105 371.5,-105 371.5,-99 377.5,-93 383.5,-93 383.5,-93 438.5,-93 438.5,-93 444.5,-93 450.5,-99 450.5,-105 450.5,-105 450.5,-117 450.5,-117 450.5,-123 444.5,-129 438.5,-129"/>
<text text-anchor="middle" x="411" y="-114.2" font-family="Arial" font-size="11.00">Factories</text>
<text text-anchor="middle" x="411" y="-102.2" font-family="Arial" font-size="11.00">(IPizzaOven)</text>
</g>
<!-- ServiceLayer&#45;&gt;Factories -->
<g id="edge8" class="edge">
<title>ServiceLayer&#45;&gt;Factories</title>
<path fill="none" stroke="black" d="M528.53,-185.87C521.58,-182.81 514.17,-179.97 507,-178 486.1,-172.26 424.52,-184.09 410,-168 403.01,-160.26 402.06,-149.17 403.3,-138.91"/>
<polygon fill="black" stroke="black" points="406.75,-139.54 405.14,-129.07 399.87,-138.25 406.75,-139.54"/>
<text text-anchor="middle" x="444" y="-160" font-family="Arial" font-size="10.00">Creates Pizzas</text>
</g>
<!-- ServiceLayer&#45;&gt;Factories -->
<g id="edge16" class="edge">
<title>ServiceLayer&#45;&gt;Factories</title>
<path fill="none" stroke="orange" stroke-width="1.5" d="M530.05,-185.85C500.51,-169.49 460.43,-147.27 460,-147 454.18,-143.32 448.11,-139.22 442.31,-135.16"/>
<polygon fill="orange" stroke="orange" stroke-width="1.5" points="444.23,-132.23 434.06,-129.29 440.17,-137.94 444.23,-132.23"/>
</g>
<!-- Repositories -->
<g id="node7" class="node">
<title>Repositories</title>
<path fill="lightyellow" stroke="black" d="M565.5,-133C565.5,-133 480.5,-133 480.5,-133 474.5,-133 468.5,-127 468.5,-121 468.5,-121 468.5,-101 468.5,-101 468.5,-95 474.5,-89 480.5,-89 480.5,-89 565.5,-89 565.5,-89 571.5,-89 577.5,-95 577.5,-101 577.5,-101 577.5,-121 577.5,-121 577.5,-127 571.5,-133 565.5,-133"/>
<text text-anchor="middle" x="523" y="-120.2" font-family="Arial" font-size="11.00">Repositories</text>
<text text-anchor="middle" x="523" y="-108.2" font-family="Arial" font-size="11.00">(IStockRepository</text>
<text text-anchor="middle" x="523" y="-96.2" font-family="Arial" font-size="11.00">IRecipeRepository)</text>
</g>
<!-- ServiceLayer&#45;&gt;Repositories -->
<g id="edge9" class="edge">
<title>ServiceLayer&#45;&gt;Repositories</title>
<path fill="none" stroke="black" d="M538.81,-185.76C533.72,-180.63 528.94,-174.59 526,-168 522.6,-160.37 521.14,-151.57 520.7,-143.23"/>
<polygon fill="black" stroke="black" points="524.2,-143.02 520.63,-133.05 517.2,-143.08 524.2,-143.02"/>
<text text-anchor="middle" x="554.5" y="-160" font-family="Arial" font-size="10.00">Data Access</text>
</g>
<!-- ServiceLayer&#45;&gt;Repositories -->
<g id="edge17" class="edge">
<title>ServiceLayer&#45;&gt;Repositories</title>
<path fill="none" stroke="orange" stroke-width="1.5" d="M577.05,-185.89C583.21,-177.2 587.75,-166.5 583,-157 579.76,-150.51 575.09,-144.72 569.76,-139.63"/>
<polygon fill="orange" stroke="orange" stroke-width="1.5" points="572.04,-136.97 562.17,-133.11 567.48,-142.28 572.04,-136.97"/>
</g>
<!-- OrderingService -->
<g id="node12" class="node">
<title>OrderingService</title>
<path fill="lightskyblue" stroke="black" d="M734,-139C734,-139 614,-139 614,-139 608,-139 602,-133 602,-127 602,-127 602,-95 602,-95 602,-89 608,-83 614,-83 614,-83 734,-83 734,-83 740,-83 746,-89 746,-95 746,-95 746,-127 746,-127 746,-133 740,-139 734,-139"/>
<text text-anchor="middle" x="674" y="-126.2" font-family="Arial" font-size="11.00">OrderingService</text>
<text text-anchor="middle" x="674" y="-114.2" font-family="Arial" font-size="11.00">• Uses IStockService</text>
<text text-anchor="middle" x="674" y="-102.2" font-family="Arial" font-size="11.00">• Uses IRecipeService</text>
<text text-anchor="middle" x="674" y="-90.2" font-family="Arial" font-size="11.00">• Uses IPizzaOven</text>
</g>
<!-- ServiceLayer&#45;&gt;OrderingService -->
<g id="edge3" class="edge">
<title>ServiceLayer&#45;&gt;OrderingService</title>
<path fill="none" stroke="black" d="M582.25,-185.88C596.32,-174.56 615.24,-159.32 632.24,-145.63"/>
<polygon fill="black" stroke="black" points="634.81,-148.05 640.4,-139.06 630.42,-142.6 634.81,-148.05"/>
</g>
<!-- RecipeService -->
<g id="node13" class="node">
<title>RecipeService</title>
<path fill="lightskyblue" stroke="black" d="M910,-129C910,-129 776,-129 776,-129 770,-129 764,-123 764,-117 764,-117 764,-105 764,-105 764,-99 770,-93 776,-93 776,-93 910,-93 910,-93 916,-93 922,-99 922,-105 922,-105 922,-117 922,-117 922,-123 916,-129 910,-129"/>
<text text-anchor="middle" x="843" y="-114.2" font-family="Arial" font-size="11.00">RecipeService</text>
<text text-anchor="middle" x="843" y="-102.2" font-family="Arial" font-size="11.00">• Gets recipes from repository</text>
</g>
<!-- ServiceLayer&#45;&gt;RecipeService -->
<g id="edge4" class="edge">
<title>ServiceLayer&#45;&gt;RecipeService</title>
<path fill="none" stroke="black" d="M609.24,-190.48C648.74,-179.89 705.91,-163.8 755,-147 767.4,-142.76 780.6,-137.76 792.92,-132.9"/>
<polygon fill="black" stroke="black" points="794.58,-136 802.56,-129.04 791.98,-129.5 794.58,-136"/>
</g>
<!-- StockService -->
<g id="node14" class="node">
<title>StockService</title>
<path fill="lightskyblue" stroke="black" d="M1072,-129C1072,-129 952,-129 952,-129 946,-129 940,-123 940,-117 940,-117 940,-105 940,-105 940,-99 946,-93 952,-93 952,-93 1072,-93 1072,-93 1078,-93 1084,-99 1084,-105 1084,-105 1084,-117 1084,-117 1084,-123 1078,-129 1072,-129"/>
<text text-anchor="middle" x="1012" y="-114.2" font-family="Arial" font-size="11.00">StockService</text>
<text text-anchor="middle" x="1012" y="-102.2" font-family="Arial" font-size="11.00">• Checks/manages stock</text>
</g>
<!-- ServiceLayer&#45;&gt;StockService -->
<g id="edge5" class="edge">
<title>ServiceLayer&#45;&gt;StockService</title>
<path fill="none" stroke="black" d="M609.1,-193.11C633.81,-188.21 664.45,-182.41 692,-178 797.76,-161.06 827.72,-175.41 931,-147 943.59,-143.54 956.77,-138.5 968.76,-133.32"/>
<polygon fill="black" stroke="black" points="970.37,-136.44 978.08,-129.17 967.52,-130.04 970.37,-136.44"/>
</g>
<!-- MenuService -->
<g id="node15" class="node">
<title>MenuService</title>
<path fill="lightskyblue" stroke="black" d="M1234,-129C1234,-129 1114,-129 1114,-129 1108,-129 1102,-123 1102,-117 1102,-117 1102,-105 1102,-105 1102,-99 1108,-93 1114,-93 1114,-93 1234,-93 1234,-93 1240,-93 1246,-99 1246,-105 1246,-105 1246,-117 1246,-117 1246,-123 1240,-129 1234,-129"/>
<text text-anchor="middle" x="1174" y="-114.2" font-family="Arial" font-size="11.00">MenuService</text>
<text text-anchor="middle" x="1174" y="-102.2" font-family="Arial" font-size="11.00">• Generates menu</text>
</g>
<!-- ServiceLayer&#45;&gt;MenuService -->
<g id="edge6" class="edge">
<title>ServiceLayer&#45;&gt;MenuService</title>
<path fill="none" stroke="black" d="M609.29,-192.27C633.93,-187.18 664.43,-181.47 692,-178 869.35,-155.66 919.7,-190.8 1093,-147 1105.89,-143.74 1119.35,-138.67 1131.51,-133.39"/>
<polygon fill="black" stroke="black" points="1133.27,-136.43 1140.95,-129.14 1130.4,-130.05 1133.27,-136.43"/>
</g>
<!-- Infrastructure -->
<g id="node5" class="node">
<title>Infrastructure</title>
<path fill="lightyellow" stroke="black" d="M799,-222C799,-222 713,-222 713,-222 707,-222 701,-216 701,-210 701,-210 701,-198 701,-198 701,-192 707,-186 713,-186 713,-186 799,-186 799,-186 805,-186 811,-192 811,-198 811,-198 811,-210 811,-210 811,-216 805,-222 799,-222"/>
<text text-anchor="middle" x="756" y="-201.2" font-family="Arial" font-size="11.00">Infrastructure Layer</text>
</g>
<!-- DataLayer -->
<g id="node9" class="node">
<title>DataLayer</title>
<path fill="lightcyan" stroke="black" d="M558.5,-36C558.5,-36 487.5,-36 487.5,-36 481.5,-36 475.5,-30 475.5,-24 475.5,-24 475.5,-12 475.5,-12 475.5,-6 481.5,0 487.5,0 487.5,0 558.5,0 558.5,0 564.5,0 570.5,-6 570.5,-12 570.5,-12 570.5,-24 570.5,-24 570.5,-30 564.5,-36 558.5,-36"/>
<text text-anchor="middle" x="523" y="-21.2" font-family="Arial" font-size="11.00">Data Layer</text>
<text text-anchor="middle" x="523" y="-9.2" font-family="Arial" font-size="11.00">(FakeDatabase)</text>
</g>
<!-- Repositories&#45;&gt;DataLayer -->
<g id="edge10" class="edge">
<title>Repositories&#45;&gt;DataLayer</title>
<path fill="none" stroke="black" d="M500.38,-88.58C494.56,-81.68 489.07,-73.57 486,-65 483.28,-57.4 485.73,-50.13 490.43,-43.69"/>
<polygon fill="black" stroke="black" points="493.25,-45.79 497.37,-36.03 488.07,-41.09 493.25,-45.79"/>
<text text-anchor="middle" x="516.5" y="-57" font-family="Arial" font-size="10.00">Persists Data</text>
</g>
<!-- Repositories&#45;&gt;DataLayer -->
<g id="edge18" class="edge">
<title>Repositories&#45;&gt;DataLayer</title>
<path fill="none" stroke="cyan" stroke-width="1.5" d="M539.78,-88.85C545.97,-78.53 550.66,-65.82 547,-54 546.02,-50.83 544.64,-47.7 543.04,-44.68"/>
<polygon fill="cyan" stroke="cyan" stroke-width="1.5" points="545.95,-42.74 537.71,-36.07 540,-46.42 545.95,-42.74"/>
</g>
<!-- Extensions -->
<g id="node8" class="node">
<title>Extensions</title>
<path fill="lightyellow" stroke="black" d="M341.5,-129C341.5,-129 296.5,-129 296.5,-129 290.5,-129 284.5,-123 284.5,-117 284.5,-117 284.5,-105 284.5,-105 284.5,-99 290.5,-93 296.5,-93 296.5,-93 341.5,-93 341.5,-93 347.5,-93 353.5,-99 353.5,-105 353.5,-105 353.5,-117 353.5,-117 353.5,-123 347.5,-129 341.5,-129"/>
<text text-anchor="middle" x="319" y="-114.2" font-family="Arial" font-size="11.00">Extensions</text>
<text text-anchor="middle" x="319" y="-102.2" font-family="Arial" font-size="11.00">(Helpers)</text>
</g>
<!-- DI -->
<g id="node10" class="node">
<title>DI</title>
<path fill="lightgray" stroke="black" d="M672.86,-349.54C672.86,-349.54 615.14,-326.46 615.14,-326.46 609.57,-324.23 609.57,-319.77 615.14,-317.54 615.14,-317.54 672.86,-294.46 672.86,-294.46 678.43,-292.23 689.57,-292.23 695.14,-294.46 695.14,-294.46 752.86,-317.54 752.86,-317.54 758.43,-319.77 758.43,-324.23 752.86,-326.46 752.86,-326.46 695.14,-349.54 695.14,-349.54 689.57,-351.77 678.43,-351.77 672.86,-349.54"/>
<text text-anchor="middle" x="684" y="-325.2" font-family="Arial" font-size="11.00">DI Container</text>
<text text-anchor="middle" x="684" y="-313.2" font-family="Arial" font-size="11.00">(Program.cs)</text>
</g>
<!-- DI&#45;&gt;ServiceLayer -->
<g id="edge11" class="edge">
<title>DI&#45;&gt;ServiceLayer</title>
<path fill="none" stroke="black" stroke-dasharray="5,2" d="M626.08,-313.02C601.1,-306.39 574.17,-294.24 559,-272 551.19,-260.55 551.08,-245.24 553.2,-232.15"/>
<polygon fill="black" stroke="black" points="556.65,-232.75 555.27,-222.24 549.8,-231.31 556.65,-232.75"/>
<text text-anchor="middle" x="606.5" y="-264" font-family="Arial" font-size="10.00">Injects Dependencies</text>
</g>
<!-- DI&#45;&gt;ServiceLayer -->
<g id="edge19" class="edge">
<title>DI&#45;&gt;ServiceLayer</title>
<path fill="none" stroke="gray" stroke-dasharray="5,2" d="M674.21,-293.59C669.34,-282.58 662.62,-270.32 654,-261 641.38,-247.35 624.68,-235.9 608.91,-226.99"/>
<polygon fill="gray" stroke="gray" points="610.24,-223.73 599.78,-222.04 606.9,-229.88 610.24,-223.73"/>
</g>
<!-- DI&#45;&gt;Infrastructure -->
<g id="edge12" class="edge">
<title>DI&#45;&gt;Infrastructure</title>
<path fill="none" stroke="black" stroke-dasharray="5,2" d="M689.71,-292.08C692.48,-281.82 696.45,-270.48 702,-261 708.83,-249.32 718.59,-238.2 727.94,-229"/>
<polygon fill="black" stroke="black" points="730.42,-231.46 735.28,-222.05 725.61,-226.38 730.42,-231.46"/>
<text text-anchor="middle" x="749.5" y="-264" font-family="Arial" font-size="10.00">Injects Dependencies</text>
</g>
<!-- DI&#45;&gt;Infrastructure -->
<g id="edge20" class="edge">
<title>DI&#45;&gt;Infrastructure</title>
<path fill="none" stroke="gray" stroke-dasharray="5,2" d="M737.39,-311.31C759.75,-304.33 783.62,-292.38 797,-272 806.13,-258.09 797.24,-242.21 785.43,-229.41"/>
<polygon fill="gray" stroke="gray" points="787.81,-226.84 778.26,-222.26 782.87,-231.8 787.81,-226.84"/>
</g>
<!-- CrossCutting -->
<g id="node11" class="node">
<title>CrossCutting</title>
<path fill="lightpink" stroke="black" d="M605.5,-431C605.5,-431 680.5,-431 680.5,-431 686.5,-431 692.5,-437 692.5,-443 692.5,-443 692.5,-463 692.5,-463 692.5,-469 686.5,-475 680.5,-475 680.5,-475 605.5,-475 605.5,-475 599.5,-475 593.5,-469 593.5,-463 593.5,-463 593.5,-443 593.5,-443 593.5,-437 599.5,-431 605.5,-431"/>
<text text-anchor="middle" x="643" y="-462.2" font-family="Arial" font-size="11.00">Cross&#45;Cutting</text>
<text text-anchor="middle" x="643" y="-450.2" font-family="Arial" font-size="11.00">(ComparableList,</text>
<text text-anchor="middle" x="643" y="-438.2" font-family="Arial" font-size="11.00">Extensions)</text>
</g>
<!-- Legend -->
<g id="node20" class="node">
<title>Legend</title>
<path fill="white" stroke="transparent" d="M895,-505C895,-505 727,-505 727,-505 721,-505 715,-499 715,-493 715,-493 715,-413 715,-413 715,-407 721,-401 727,-401 727,-401 895,-401 895,-401 901,-401 907,-407 907,-413 907,-413 907,-493 907,-493 907,-499 901,-505 895,-505"/>
<text text-anchor="middle" x="811" y="-474.2" font-family="Arial" font-size="11.00">• Dependency Injection</text>
<text text-anchor="middle" x="811" y="-462.2" font-family="Arial" font-size="11.00">• Repository Pattern</text>
<text text-anchor="middle" x="811" y="-450.2" font-family="Arial" font-size="11.00">• Factory Pattern</text>
<text text-anchor="middle" x="811" y="-438.2" font-family="Arial" font-size="11.00">• Service Layer Pattern</text>
<text text-anchor="middle" x="811" y="-426.2" font-family="Arial" font-size="11.00">• Strategy Pattern (PizzaOven)</text>
</g>
<!-- Arrows -->
<g id="node21" class="node">
<title>Arrows</title>
<path fill="white" stroke="transparent" d="M1146,-493C1146,-493 1002,-493 1002,-493 996,-493 990,-487 990,-481 990,-481 990,-425 990,-425 990,-419 996,-413 1002,-413 1002,-413 1146,-413 1146,-413 1152,-413 1158,-419 1158,-425 1158,-425 1158,-481 1158,-481 1158,-487 1152,-493 1146,-493"/>
<text text-anchor="middle" x="1074" y="-462.2" font-family="Arial" font-size="11.00">──── Method Calls</text>
<text text-anchor="middle" x="1074" y="-450.2" font-family="Arial" font-size="11.00">&#45; &#45; &#45; Dependency Injection</text>
<text text-anchor="middle" x="1074" y="-438.2" font-family="Arial" font-size="11.00">&#45; · &#45; Data Flow</text>
</g>
</g>
</svg>
