<?xml version="1.0" encoding="UTF-8" standalone="no"?>
<!DOCTYPE svg PUBLIC "-//W3C//DTD SVG 1.1//EN"
 "http://www.w3.org/Graphics/SVG/1.1/DTD/svg11.dtd">
<!-- Generated by graphviz version 2.42.4 (0)
 -->
<!-- Title: ClassDiagram Pages: 1 -->
<svg width="2874pt" height="899pt"
 viewBox="0.00 0.00 2874.00 898.50" xmlns="http://www.w3.org/2000/svg" xmlns:xlink="http://www.w3.org/1999/xlink">
<g id="graph0" class="graph" transform="scale(1 1) rotate(0) translate(4 894.5)">
<title>ClassDiagram</title>
<polygon fill="white" stroke="transparent" points="-4,4 -4,-894.5 2870,-894.5 2870,4 -4,4"/>
<g id="clust1" class="cluster">
<title>cluster_legend</title>
<polygon fill="none" stroke="gray" stroke-dasharray="5,2" points="8,-41 8,-116 250,-116 250,-41 8,-41"/>
<text text-anchor="middle" x="129" y="-48.8" font-family="Times,serif" font-size="14.00">Legend</text>
</g>
<g id="clust2" class="cluster">
<title>cluster_models</title>
<polygon fill="#bfefff" stroke="#bfefff" points="420,-8 420,-264.5 1441,-264.5 1441,-8 420,-8"/>
<text text-anchor="middle" x="930.5" y="-15.8" font-family="Times,serif" font-size="14.00">Models</text>
</g>
<g id="clust3" class="cluster">
<title>cluster_repositories</title>
<polygon fill="#eedd82" stroke="#eedd82" points="1667,-683.5 1667,-882.5 2211,-882.5 2211,-683.5 1667,-683.5"/>
<text text-anchor="middle" x="1939" y="-691.3" font-family="Times,serif" font-size="14.00">Repositories</text>
</g>
<g id="clust4" class="cluster">
<title>cluster_services</title>
<polygon fill="lavender" stroke="lavender" points="1449,-177 1449,-632.5 2145,-632.5 2145,-177 1449,-177"/>
<text text-anchor="middle" x="1797" y="-184.8" font-family="Times,serif" font-size="14.00">Services</text>
</g>
<g id="clust5" class="cluster">
<title>cluster_factories</title>
<polygon fill="lightcoral" stroke="lightcoral" points="1035,-533.5 1035,-774 1441,-774 1441,-533.5 1035,-533.5"/>
<text text-anchor="middle" x="1238" y="-541.3" font-family="Times,serif" font-size="14.00">Factories</text>
</g>
<g id="clust6" class="cluster">
<title>cluster_pizzas</title>
<polygon fill="honeydew" stroke="honeydew" points="2227,-39.5 2227,-252.5 2451,-252.5 2451,-39.5 2227,-39.5"/>
<text text-anchor="middle" x="2339" y="-47.3" font-family="Times,serif" font-size="14.00">Pizzas</text>
</g>
<g id="clust7" class="cluster">
<title>cluster_controllers</title>
<polygon fill="wheat" stroke="wheat" points="1753,-39.5 1753,-117.5 2219,-117.5 2219,-39.5 1753,-39.5"/>
<text text-anchor="middle" x="1986" y="-47.3" font-family="Times,serif" font-size="14.00">Controllers</text>
</g>
<g id="clust8" class="cluster">
<title>cluster_extensions</title>
<polygon fill="lightgray" stroke="lightgray" points="2459,-28.5 2459,-128.5 2858,-128.5 2858,-28.5 2459,-28.5"/>
<text text-anchor="middle" x="2658.5" y="-36.3" font-family="Times,serif" font-size="14.00">Extensions</text>
</g>
<!-- legend_inherit -->
<g id="node1" class="node">
<title>legend_inherit</title>
<text text-anchor="middle" x="215" y="-87.5" font-family="Arial" font-size="10.00">Inheritance</text>
</g>
<!-- legend_implements -->
<g id="node2" class="node">
<title>legend_implements</title>
<text text-anchor="middle" x="143" y="-87.5" font-family="Arial" font-size="10.00">Implements</text>
</g>
<!-- legend_uses -->
<g id="node3" class="node">
<title>legend_uses</title>
<text text-anchor="middle" x="57" y="-87.5" font-family="Arial" font-size="10.00">Uses/Dependency</text>
</g>
<!-- PizzaException -->
<g id="node4" class="node">
<title>PizzaException</title>
<polygon fill="none" stroke="black" points="202,-196 202,-256 412,-256 412,-196 202,-196"/>
<text text-anchor="middle" x="307" y="-244" font-family="Arial" font-size="10.00">PizzaException</text>
<polyline fill="none" stroke="black" points="202,-237 412,-237 "/>
<text text-anchor="start" x="210" y="-225" font-family="Arial" font-size="10.00">+ PizzaException()</text>
<text text-anchor="start" x="210" y="-214" font-family="Arial" font-size="10.00">+ PizzaException(message)</text>
<text text-anchor="start" x="210" y="-203" font-family="Arial" font-size="10.00">+ PizzaException(message, innerException)</text>
</g>
<!-- SystemException -->
<g id="node5" class="node">
<title>SystemException</title>
<polygon fill="none" stroke="black" points="260,-72 260,-108 354,-108 354,-72 260,-72"/>
<text text-anchor="middle" x="307" y="-87.5" font-family="Arial" font-size="10.00">SystemException</text>
</g>
<!-- SystemException&#45;&gt;PizzaException -->
<g id="edge1" class="edge">
<title>SystemException&#45;&gt;PizzaException</title>
<path fill="none" stroke="black" stroke-dasharray="5,2" d="M307,-108.24C307,-127.69 307,-159.95 307,-185.63"/>
<polygon fill="black" stroke="black" points="303.5,-185.82 307,-195.82 310.5,-185.82 303.5,-185.82"/>
<text text-anchor="middle" x="322.5" y="-161.8" font-family="Arial" font-size="9.00">inherits</text>
</g>
<!-- Dto -->
<g id="node6" class="node">
<title>Dto</title>
<polygon fill="none" stroke="black" points="773.5,-71 773.5,-109 844.5,-109 844.5,-71 773.5,-71"/>
<text text-anchor="middle" x="809" y="-97" font-family="Arial" font-size="10.00">abstract Dto</text>
<polyline fill="none" stroke="black" points="773.5,-90 844.5,-90 "/>
<text text-anchor="start" x="781.5" y="-78" font-family="Arial" font-size="10.00">+ Id : long</text>
</g>
<!-- StockDto -->
<g id="node9" class="node">
<title>StockDto</title>
<polygon fill="none" stroke="black" points="745,-196 745,-256 873,-256 873,-196 745,-196"/>
<text text-anchor="middle" x="809" y="-244" font-family="Arial" font-size="10.00">StockDto</text>
<polyline fill="none" stroke="black" points="745,-237 873,-237 "/>
<text text-anchor="start" x="753" y="-225" font-family="Arial" font-size="10.00">+ StockType : StockType</text>
<text text-anchor="start" x="753" y="-214" font-family="Arial" font-size="10.00">+ Amount : int</text>
<text text-anchor="start" x="753" y="-203" font-family="Arial" font-size="10.00">+ Id : long</text>
</g>
<!-- Dto&#45;&gt;StockDto -->
<g id="edge2" class="edge">
<title>Dto&#45;&gt;StockDto</title>
<path fill="none" stroke="black" d="M809,-109.07C809,-128.66 809,-160.52 809,-185.89"/>
<polygon fill="black" stroke="black" points="805.5,-185.95 809,-195.95 812.5,-185.95 805.5,-185.95"/>
<text text-anchor="middle" x="824.5" y="-161.8" font-family="Arial" font-size="9.00">inherits</text>
</g>
<!-- PizzaRecipeDto -->
<g id="node10" class="node">
<title>PizzaRecipeDto</title>
<polygon fill="none" stroke="black" points="639,-208 639,-244 727,-244 727,-208 639,-208"/>
<text text-anchor="middle" x="683" y="-228" font-family="Arial" font-size="10.00">PizzaRecipeDto</text>
<polyline fill="none" stroke="black" points="639,-217 727,-217 "/>
</g>
<!-- Dto&#45;&gt;PizzaRecipeDto -->
<g id="edge3" class="edge">
<title>Dto&#45;&gt;PizzaRecipeDto</title>
<path fill="none" stroke="black" d="M793.34,-109.25C785.03,-118.81 774.59,-130.65 765,-141 746.02,-161.48 723.86,-184.1 707.37,-200.7"/>
<polygon fill="black" stroke="black" points="704.8,-198.32 700.23,-207.88 709.76,-203.26 704.8,-198.32"/>
<text text-anchor="middle" x="762.5" y="-161.8" font-family="Arial" font-size="9.00">inherits</text>
</g>
<!-- StockType -->
<g id="node7" class="node">
<title>StockType</title>
<polygon fill="none" stroke="black" points="1265,-45 1265,-135 1361,-135 1361,-45 1265,-45"/>
<text text-anchor="middle" x="1313" y="-123" font-family="Arial" font-size="10.00">StockType (enum)</text>
<polyline fill="none" stroke="black" points="1265,-116 1361,-116 "/>
<text text-anchor="start" x="1273" y="-104" font-family="Arial" font-size="10.00">Dough</text>
<text text-anchor="start" x="1273" y="-93" font-family="Arial" font-size="10.00">FermentedDough</text>
<text text-anchor="start" x="1273" y="-82" font-family="Arial" font-size="10.00">Tomatoes</text>
<text text-anchor="middle" x="1313" y="-71" font-family="Arial" font-size="10.00">...</text>
<polyline fill="none" stroke="black" points="1265,-64 1361,-64 "/>
<text text-anchor="middle" x="1313" y="-52" font-family="Arial" font-size="10.00"> </text>
</g>
<!-- PizzaRecipeType -->
<g id="node8" class="node">
<title>PizzaRecipeType</title>
<polygon fill="none" stroke="black" points="1121,-39.5 1121,-140.5 1247,-140.5 1247,-39.5 1121,-39.5"/>
<text text-anchor="middle" x="1184" y="-128.5" font-family="Arial" font-size="10.00">PizzaRecipeType (enum)</text>
<polyline fill="none" stroke="black" points="1121,-121.5 1247,-121.5 "/>
<text text-anchor="start" x="1129" y="-109.5" font-family="Arial" font-size="10.00">StandardPizza</text>
<text text-anchor="start" x="1129" y="-98.5" font-family="Arial" font-size="10.00">ExtremelyTastyPizza</text>
<text text-anchor="start" x="1129" y="-87.5" font-family="Arial" font-size="10.00">OddPizza</text>
<text text-anchor="start" x="1129" y="-76.5" font-family="Arial" font-size="10.00">RarePizza</text>
<text text-anchor="middle" x="1184" y="-65.5" font-family="Arial" font-size="10.00">...</text>
<polyline fill="none" stroke="black" points="1121,-58.5 1247,-58.5 "/>
<text text-anchor="middle" x="1184" y="-46.5" font-family="Arial" font-size="10.00"> </text>
</g>
<!-- ComparableList -->
<g id="node16" class="node">
<title>ComparableList</title>
<polygon fill="none" stroke="black" points="849,-303 849,-410 953,-410 953,-303 849,-303"/>
<polyline fill="none" stroke="black" points="849,-410 953,-410 "/>
<text text-anchor="start" x="857" y="-398" font-family="Arial" font-size="10.00">+ Count : int</text>
<text text-anchor="start" x="857" y="-387" font-family="Arial" font-size="10.00">+ IsReadOnly : bool</text>
<text text-anchor="start" x="857" y="-376" font-family="Arial" font-size="10.00">+ this[index] : T</text>
<text text-anchor="start" x="857" y="-365" font-family="Arial" font-size="10.00">+ Add()</text>
<text text-anchor="start" x="857" y="-354" font-family="Arial" font-size="10.00">+ Clear()</text>
<text text-anchor="start" x="857" y="-343" font-family="Arial" font-size="10.00">+ Contains()</text>
<text text-anchor="start" x="857" y="-332" font-family="Arial" font-size="10.00">+ IndexOf()</text>
<text text-anchor="start" x="857" y="-321" font-family="Arial" font-size="10.00">+ Remove()</text>
<text text-anchor="start" x="857" y="-310" font-family="Arial" font-size="10.00">+ RemoveAt()</text>
</g>
<!-- PizzaRecipeDto&#45;&gt;ComparableList -->
<g id="edge29" class="edge">
<title>PizzaRecipeDto&#45;&gt;ComparableList</title>
<path fill="none" stroke="black" stroke-dasharray="5,2" d="M705.84,-244C715.05,-250.63 725.88,-258.15 736,-264.5 772.87,-287.61 815.96,-311.27 848.86,-328.67"/>
</g>
<!-- PizzaAmount -->
<g id="node11" class="node">
<title>PizzaAmount</title>
<polygon fill="none" stroke="black" points="945.5,-65.5 945.5,-114.5 1102.5,-114.5 1102.5,-65.5 945.5,-65.5"/>
<text text-anchor="middle" x="1024" y="-102.5" font-family="Arial" font-size="10.00">PizzaAmount</text>
<polyline fill="none" stroke="black" points="945.5,-95.5 1102.5,-95.5 "/>
<text text-anchor="start" x="953.5" y="-83.5" font-family="Arial" font-size="10.00">+ PizzaType : PizzaRecipeType</text>
<text text-anchor="start" x="953.5" y="-72.5" font-family="Arial" font-size="10.00">+ Amount : ushort</text>
</g>
<!-- PizzaOrder -->
<g id="node12" class="node">
<title>PizzaOrder</title>
<polygon fill="none" stroke="black" points="862.5,-72 862.5,-108 927.5,-108 927.5,-72 862.5,-72"/>
<text text-anchor="middle" x="895" y="-92" font-family="Arial" font-size="10.00">PizzaOrder</text>
<polyline fill="none" stroke="black" points="862.5,-81 927.5,-81 "/>
</g>
<!-- PizzaOrder&#45;&gt;ComparableList -->
<g id="edge30" class="edge">
<title>PizzaOrder&#45;&gt;ComparableList</title>
<path fill="none" stroke="black" stroke-dasharray="5,2" d="M895.39,-108.35C896.28,-147.26 898.44,-242.75 899.81,-303"/>
</g>
<!-- PizzaPrepareOrder -->
<g id="node13" class="node">
<title>PizzaPrepareOrder</title>
<polygon fill="none" stroke="black" points="428,-65.5 428,-114.5 580,-114.5 580,-65.5 428,-65.5"/>
<text text-anchor="middle" x="504" y="-102.5" font-family="Arial" font-size="10.00">PizzaPrepareOrder</text>
<polyline fill="none" stroke="black" points="428,-95.5 580,-95.5 "/>
<text text-anchor="start" x="436" y="-83.5" font-family="Arial" font-size="10.00">+ RecipeDto : PizzaRecipeDto</text>
<text text-anchor="start" x="436" y="-72.5" font-family="Arial" font-size="10.00">+ OrderAmount : int</text>
</g>
<!-- PizzaPrepareOrder&#45;&gt;PizzaRecipeDto -->
<g id="edge31" class="edge">
<title>PizzaPrepareOrder&#45;&gt;PizzaRecipeDto</title>
<path fill="none" stroke="black" stroke-dasharray="5,2" d="M535.59,-114.65C571.32,-141.4 628.63,-184.3 660.24,-207.96"/>
</g>
<!-- MenuItem -->
<g id="node14" class="node">
<title>MenuItem</title>
<polygon fill="none" stroke="black" points="598.5,-54.5 598.5,-125.5 755.5,-125.5 755.5,-54.5 598.5,-54.5"/>
<text text-anchor="middle" x="677" y="-113.5" font-family="Arial" font-size="10.00">MenuItem</text>
<polyline fill="none" stroke="black" points="598.5,-106.5 755.5,-106.5 "/>
<text text-anchor="start" x="606.5" y="-94.5" font-family="Arial" font-size="10.00">+ Description : string</text>
<text text-anchor="start" x="606.5" y="-83.5" font-family="Arial" font-size="10.00">+ PizzaType : PizzaRecipeType</text>
<text text-anchor="start" x="606.5" y="-72.5" font-family="Arial" font-size="10.00">+ Price : double</text>
<text text-anchor="start" x="606.5" y="-61.5" font-family="Arial" font-size="10.00">+ SoldOut : bool</text>
</g>
<!-- Menu -->
<g id="node15" class="node">
<title>Menu</title>
<polygon fill="none" stroke="black" points="1379,-72 1379,-108 1433,-108 1433,-72 1379,-72"/>
<text text-anchor="middle" x="1406" y="-92" font-family="Arial" font-size="10.00">Menu</text>
<polyline fill="none" stroke="black" points="1379,-81 1433,-81 "/>
</g>
<!-- Menu&#45;&gt;ComparableList -->
<g id="edge28" class="edge">
<title>Menu&#45;&gt;ComparableList</title>
<path fill="none" stroke="black" stroke-dasharray="5,2" d="M1396.81,-108.04C1390.42,-118.63 1381.07,-131.9 1370,-141 1239.09,-248.58 1045.42,-314.33 953.33,-341.3"/>
</g>
<!-- FakeDatabase -->
<g id="node17" class="node">
<title>FakeDatabase</title>
<polygon fill="none" stroke="black" points="1903.5,-715 1903.5,-767 1966.5,-767 1966.5,-715 1903.5,-715"/>
<polyline fill="none" stroke="black" points="1903.5,-767 1966.5,-767 "/>
<text text-anchor="start" x="1911.5" y="-755" font-family="Arial" font-size="10.00">+ Insert()</text>
<text text-anchor="start" x="1911.5" y="-744" font-family="Arial" font-size="10.00">+ Get()</text>
<text text-anchor="start" x="1911.5" y="-733" font-family="Arial" font-size="10.00">+ Update()</text>
<text text-anchor="start" x="1911.5" y="-722" font-family="Arial" font-size="10.00">+ Delete()</text>
</g>
<!-- FakeStockRepository -->
<g id="node20" class="node">
<title>FakeStockRepository</title>
<polygon fill="none" stroke="black" points="1956.5,-814 1956.5,-874 2067.5,-874 2067.5,-814 1956.5,-814"/>
<text text-anchor="middle" x="2012" y="-862" font-family="Arial" font-size="10.00">FakeStockRepository</text>
<polyline fill="none" stroke="black" points="1956.5,-855 2067.5,-855 "/>
<text text-anchor="start" x="1964.5" y="-843" font-family="Arial" font-size="10.00">+ AddToStock()</text>
<text text-anchor="start" x="1964.5" y="-832" font-family="Arial" font-size="10.00">+ GetStock()</text>
<text text-anchor="start" x="1964.5" y="-821" font-family="Arial" font-size="10.00">+ TakeStock()</text>
</g>
<!-- FakeDatabase&#45;&gt;FakeStockRepository -->
<g id="edge4" class="edge">
<title>FakeDatabase&#45;&gt;FakeStockRepository</title>
<path fill="none" stroke="black" d="M1946.12,-767.22C1950.74,-776.5 1956.54,-786.85 1963,-795.5 1965.82,-799.28 1968.95,-803.03 1972.22,-806.67"/>
<polygon fill="black" stroke="black" points="1969.68,-809.07 1979.08,-813.96 1974.78,-804.28 1969.68,-809.07"/>
<text text-anchor="middle" x="1978.5" y="-788.3" font-family="Arial" font-size="9.00">inherits</text>
</g>
<!-- FakeRecipeRepository -->
<g id="node21" class="node">
<title>FakeRecipeRepository</title>
<polygon fill="none" stroke="black" points="1815.5,-814 1815.5,-874 1938.5,-874 1938.5,-814 1815.5,-814"/>
<text text-anchor="middle" x="1877" y="-862" font-family="Arial" font-size="10.00">FakeRecipeRepository</text>
<polyline fill="none" stroke="black" points="1815.5,-855 1938.5,-855 "/>
<text text-anchor="start" x="1823.5" y="-843" font-family="Arial" font-size="10.00">+ AddRecipe()</text>
<text text-anchor="start" x="1823.5" y="-832" font-family="Arial" font-size="10.00">+ GetRecipe()</text>
<text text-anchor="start" x="1823.5" y="-821" font-family="Arial" font-size="10.00">+ AddStandardRecipes()</text>
</g>
<!-- FakeDatabase&#45;&gt;FakeRecipeRepository -->
<g id="edge6" class="edge">
<title>FakeDatabase&#45;&gt;FakeRecipeRepository</title>
<path fill="none" stroke="black" d="M1916.58,-767.34C1912.59,-773.2 1908.52,-779.48 1905,-785.5 1901.46,-791.56 1897.97,-798.12 1894.71,-804.58"/>
<polygon fill="black" stroke="black" points="1891.4,-803.37 1890.12,-813.89 1897.68,-806.47 1891.4,-803.37"/>
<text text-anchor="middle" x="1920.5" y="-788.3" font-family="Arial" font-size="9.00">inherits</text>
</g>
<!-- IStockRepository -->
<g id="node18" class="node">
<title>IStockRepository</title>
<polygon fill="none" stroke="black" points="2195,-767 1989,-767 1989,-715 2195,-715 2195,-767"/>
<text text-anchor="start" x="1997" y="-755" font-family="Arial" font-size="10.00">{interface IStockRepository|+ AddToStock()</text>
<text text-anchor="start" x="1997" y="-744" font-family="Arial" font-size="10.00">+ GetStock()</text>
<text text-anchor="start" x="1997" y="-733" font-family="Arial" font-size="10.00">+ TakeStock()</text>
<text text-anchor="middle" x="2092" y="-722" font-family="Arial" font-size="10.00">}</text>
</g>
<!-- IStockRepository&#45;&gt;FakeStockRepository -->
<g id="edge5" class="edge">
<title>IStockRepository&#45;&gt;FakeStockRepository</title>
<path fill="none" stroke="black" d="M2072.02,-767.23C2062.83,-778.83 2051.75,-792.82 2041.62,-805.61"/>
<polygon fill="black" stroke="black" points="2038.59,-803.79 2035.13,-813.8 2044.08,-808.14 2038.59,-803.79"/>
<text text-anchor="middle" x="2080" y="-788.3" font-family="Arial" font-size="9.00">implements</text>
</g>
<!-- StockRepository -->
<g id="node22" class="node">
<title>StockRepository</title>
<polygon fill="none" stroke="black" points="2085.5,-814 2085.5,-874 2202.5,-874 2202.5,-814 2085.5,-814"/>
<text text-anchor="middle" x="2144" y="-862" font-family="Arial" font-size="10.00">StockRepository (stub)</text>
<polyline fill="none" stroke="black" points="2085.5,-855 2202.5,-855 "/>
<text text-anchor="start" x="2093.5" y="-843" font-family="Arial" font-size="10.00">+ AddToStock()</text>
<text text-anchor="start" x="2093.5" y="-832" font-family="Arial" font-size="10.00">+ GetStock()</text>
<text text-anchor="start" x="2093.5" y="-821" font-family="Arial" font-size="10.00">+ TakeStock()</text>
</g>
<!-- IStockRepository&#45;&gt;StockRepository -->
<g id="edge8" class="edge">
<title>IStockRepository&#45;&gt;StockRepository</title>
<path fill="none" stroke="black" d="M2104.99,-767.23C2110.85,-778.6 2117.89,-792.29 2124.37,-804.88"/>
<polygon fill="black" stroke="black" points="2121.28,-806.52 2128.97,-813.8 2127.5,-803.31 2121.28,-806.52"/>
<text text-anchor="middle" x="2142" y="-788.3" font-family="Arial" font-size="9.00">implements</text>
</g>
<!-- IRecipeRepository -->
<g id="node19" class="node">
<title>IRecipeRepository</title>
<polygon fill="none" stroke="black" points="1881,-761.5 1675,-761.5 1675,-720.5 1881,-720.5 1881,-761.5"/>
<text text-anchor="start" x="1683" y="-749.5" font-family="Arial" font-size="10.00">{interface IRecipeRepository|+ AddRecipe()</text>
<text text-anchor="start" x="1683" y="-738.5" font-family="Arial" font-size="10.00">+ GetRecipe()</text>
<text text-anchor="middle" x="1778" y="-727.5" font-family="Arial" font-size="10.00">}</text>
</g>
<!-- IRecipeRepository&#45;&gt;FakeRecipeRepository -->
<g id="edge7" class="edge">
<title>IRecipeRepository&#45;&gt;FakeRecipeRepository</title>
<path fill="none" stroke="black" d="M1797.56,-761.95C1810.05,-774.7 1826.62,-791.61 1841.4,-806.68"/>
<polygon fill="black" stroke="black" points="1838.98,-809.21 1848.48,-813.9 1843.98,-804.31 1838.98,-809.21"/>
<text text-anchor="middle" x="1851" y="-788.3" font-family="Arial" font-size="9.00">implements</text>
</g>
<!-- RecipeRepository -->
<g id="node23" class="node">
<title>RecipeRepository</title>
<polygon fill="none" stroke="black" points="1675,-819.5 1675,-868.5 1797,-868.5 1797,-819.5 1675,-819.5"/>
<text text-anchor="middle" x="1736" y="-856.5" font-family="Arial" font-size="10.00">RecipeRepository (stub)</text>
<polyline fill="none" stroke="black" points="1675,-849.5 1797,-849.5 "/>
<text text-anchor="start" x="1683" y="-837.5" font-family="Arial" font-size="10.00">+ AddRecipe()</text>
<text text-anchor="start" x="1683" y="-826.5" font-family="Arial" font-size="10.00">+ GetRecipe()</text>
</g>
<!-- IRecipeRepository&#45;&gt;RecipeRepository -->
<g id="edge9" class="edge">
<title>IRecipeRepository&#45;&gt;RecipeRepository</title>
<path fill="none" stroke="black" d="M1766.15,-761.5C1761.97,-768.86 1757.46,-777.41 1754,-785.5 1750.73,-793.14 1747.76,-801.58 1745.22,-809.58"/>
<polygon fill="black" stroke="black" points="1741.79,-808.81 1742.23,-819.39 1748.49,-810.85 1741.79,-808.81"/>
<text text-anchor="middle" x="1778" y="-788.3" font-family="Arial" font-size="9.00">implements</text>
</g>
<!-- IStockService -->
<g id="node24" class="node">
<title>IStockService</title>
<polygon fill="none" stroke="black" points="2137,-497.5 1907,-497.5 1907,-456.5 2137,-456.5 2137,-497.5"/>
<text text-anchor="start" x="1915" y="-485.5" font-family="Arial" font-size="10.00">{interface IStockService|+ HasInsufficientStock()</text>
<text text-anchor="start" x="1915" y="-474.5" font-family="Arial" font-size="10.00">+ GetStock()</text>
<text text-anchor="middle" x="2022" y="-463.5" font-family="Arial" font-size="10.00">}</text>
</g>
<!-- StockService -->
<g id="node28" class="node">
<title>StockService</title>
<polygon fill="none" stroke="black" points="2007.5,-588 2007.5,-624 2082.5,-624 2082.5,-588 2007.5,-588"/>
<text text-anchor="middle" x="2045" y="-603.5" font-family="Arial" font-size="10.00">StockService</text>
</g>
<!-- IStockService&#45;&gt;StockService -->
<g id="edge10" class="edge">
<title>IStockService&#45;&gt;StockService</title>
<path fill="none" stroke="black" d="M2025.54,-497.57C2029.43,-519.02 2035.69,-553.6 2040.06,-577.72"/>
<polygon fill="black" stroke="black" points="2036.63,-578.44 2041.86,-587.66 2043.52,-577.19 2036.63,-578.44"/>
<text text-anchor="middle" x="2054" y="-518.3" font-family="Arial" font-size="9.00">implements</text>
</g>
<!-- IRecipeService -->
<g id="node25" class="node">
<title>IRecipeService</title>
<polygon fill="none" stroke="black" points="1888.5,-495 1667.5,-495 1667.5,-459 1888.5,-459 1888.5,-495"/>
<text text-anchor="start" x="1675.5" y="-480" font-family="Arial" font-size="10.00">{interface IRecipeService|+ GetPizzaRecipes()</text>
<text text-anchor="middle" x="1778" y="-469" font-family="Arial" font-size="10.00">}</text>
</g>
<!-- RecipeService -->
<g id="node29" class="node">
<title>RecipeService</title>
<polygon fill="none" stroke="black" points="1738,-588 1738,-624 1818,-624 1818,-588 1738,-588"/>
<text text-anchor="middle" x="1778" y="-603.5" font-family="Arial" font-size="10.00">RecipeService</text>
</g>
<!-- IRecipeService&#45;&gt;RecipeService -->
<g id="edge12" class="edge">
<title>IRecipeService&#45;&gt;RecipeService</title>
<path fill="none" stroke="black" d="M1778,-495.13C1778,-516.24 1778,-552.4 1778,-577.44"/>
<polygon fill="black" stroke="black" points="1774.5,-577.74 1778,-587.74 1781.5,-577.74 1774.5,-577.74"/>
<text text-anchor="middle" x="1802" y="-518.3" font-family="Arial" font-size="9.00">implements</text>
</g>
<!-- IOrderingService -->
<g id="node26" class="node">
<title>IOrderingService</title>
<polygon fill="none" stroke="black" points="1912,-244 1682,-244 1682,-208 1912,-208 1912,-244"/>
<text text-anchor="start" x="1690" y="-229" font-family="Arial" font-size="10.00">{interface IOrderingService|+ HandlePizzaOrder()</text>
<text text-anchor="middle" x="1797" y="-218" font-family="Arial" font-size="10.00">}</text>
</g>
<!-- OrderingService -->
<g id="node30" class="node">
<title>OrderingService</title>
<polygon fill="none" stroke="black" points="1740,-338.5 1740,-374.5 1826,-374.5 1826,-338.5 1740,-338.5"/>
<text text-anchor="middle" x="1783" y="-354" font-family="Arial" font-size="10.00">OrderingService</text>
</g>
<!-- IOrderingService&#45;&gt;OrderingService -->
<g id="edge14" class="edge">
<title>IOrderingService&#45;&gt;OrderingService</title>
<path fill="none" stroke="black" d="M1795.14,-244.06C1792.8,-265.57 1788.74,-302.79 1785.97,-328.25"/>
<polygon fill="black" stroke="black" points="1782.47,-328.05 1784.87,-338.37 1789.43,-328.8 1782.47,-328.05"/>
<text text-anchor="middle" x="1815" y="-277.3" font-family="Arial" font-size="9.00">implements</text>
</g>
<!-- IMenuService -->
<g id="node27" class="node">
<title>IMenuService</title>
<polygon fill="none" stroke="black" points="2131.5,-244 1954.5,-244 1954.5,-208 2131.5,-208 2131.5,-244"/>
<text text-anchor="start" x="1962.5" y="-229" font-family="Arial" font-size="10.00">{interface IMenuService|+ GetMenu()</text>
<text text-anchor="middle" x="2043" y="-218" font-family="Arial" font-size="10.00">}</text>
</g>
<!-- MenuService -->
<g id="node32" class="node">
<title>MenuService</title>
<polygon fill="none" stroke="black" points="2006,-338.5 2006,-374.5 2080,-374.5 2080,-338.5 2006,-338.5"/>
<text text-anchor="middle" x="2043" y="-354" font-family="Arial" font-size="10.00">MenuService</text>
</g>
<!-- IMenuService&#45;&gt;MenuService -->
<g id="edge18" class="edge">
<title>IMenuService&#45;&gt;MenuService</title>
<path fill="none" stroke="black" d="M2043,-244.06C2043,-265.57 2043,-302.79 2043,-328.25"/>
<polygon fill="black" stroke="black" points="2039.5,-328.37 2043,-338.37 2046.5,-328.37 2039.5,-328.37"/>
<text text-anchor="middle" x="2067" y="-277.3" font-family="Arial" font-size="9.00">implements</text>
</g>
<!-- StockService&#45;&gt;IStockRepository -->
<g id="edge11" class="edge">
<title>StockService&#45;&gt;IStockRepository</title>
<path fill="none" stroke="black" d="M2051.05,-624.12C2058.26,-644.52 2070.49,-679.14 2079.71,-705.24"/>
<polygon fill="black" stroke="black" points="2076.45,-706.51 2083.09,-714.77 2083.05,-704.18 2076.45,-706.51"/>
<text text-anchor="middle" x="2078" y="-668.3" font-family="Arial" font-size="9.00">uses</text>
</g>
<!-- RecipeService&#45;&gt;IRecipeRepository -->
<g id="edge13" class="edge">
<title>RecipeService&#45;&gt;IRecipeRepository</title>
<path fill="none" stroke="black" d="M1778,-624.12C1778,-645.82 1778,-683.61 1778,-710.11"/>
<polygon fill="black" stroke="black" points="1774.5,-710.36 1778,-720.36 1781.5,-710.36 1774.5,-710.36"/>
<text text-anchor="middle" x="1788" y="-668.3" font-family="Arial" font-size="9.00">uses</text>
</g>
<!-- OrderingService&#45;&gt;IStockService -->
<g id="edge15" class="edge">
<title>OrderingService&#45;&gt;IStockService</title>
<path fill="none" stroke="black" d="M1817.5,-374.6C1858.37,-394.87 1926.76,-428.78 1973.09,-451.75"/>
<polygon fill="black" stroke="black" points="1971.82,-455.03 1982.34,-456.33 1974.93,-448.76 1971.82,-455.03"/>
<text text-anchor="middle" x="1954" y="-431.3" font-family="Arial" font-size="9.00">uses</text>
</g>
<!-- OrderingService&#45;&gt;IRecipeService -->
<g id="edge16" class="edge">
<title>OrderingService&#45;&gt;IRecipeService</title>
<path fill="none" stroke="black" d="M1782.27,-374.73C1781.45,-394.13 1780.11,-425.9 1779.15,-448.68"/>
<polygon fill="black" stroke="black" points="1775.65,-448.61 1778.73,-458.75 1782.65,-448.9 1775.65,-448.61"/>
<text text-anchor="middle" x="1789" y="-431.3" font-family="Arial" font-size="9.00">uses</text>
</g>
<!-- IPizzaOven -->
<g id="node31" class="node">
<title>IPizzaOven</title>
<polygon fill="none" stroke="black" points="1649,-495 1457,-495 1457,-459 1649,-459 1649,-495"/>
<text text-anchor="start" x="1465" y="-480" font-family="Arial" font-size="10.00">{interface IPizzaOven|+ PreparePizzas()</text>
<text text-anchor="middle" x="1553" y="-469" font-family="Arial" font-size="10.00">}</text>
</g>
<!-- OrderingService&#45;&gt;IPizzaOven -->
<g id="edge17" class="edge">
<title>OrderingService&#45;&gt;IPizzaOven</title>
<path fill="none" stroke="black" d="M1749.56,-374.73C1708.73,-395.77 1639.65,-431.36 1595.2,-454.26"/>
<polygon fill="black" stroke="black" points="1593.4,-451.25 1586.11,-458.94 1596.6,-457.47 1593.4,-451.25"/>
<text text-anchor="middle" x="1650" y="-431.3" font-family="Arial" font-size="9.00">uses</text>
</g>
<!-- PizzaOven -->
<g id="node33" class="node">
<title>PizzaOven</title>
<polygon fill="none" stroke="black" points="1194.5,-565 1194.5,-647 1345.5,-647 1345.5,-565 1194.5,-565"/>
<text text-anchor="middle" x="1270" y="-635" font-family="Arial" font-size="10.00">abstract PizzaOven</text>
<polyline fill="none" stroke="black" points="1194.5,-628 1345.5,-628 "/>
<text text-anchor="start" x="1202.5" y="-616" font-family="Arial" font-size="10.00">+ Capacity : abstract int</text>
<text text-anchor="start" x="1202.5" y="-605" font-family="Arial" font-size="10.00">+ PreparePizzas()</text>
<text text-anchor="start" x="1202.5" y="-594" font-family="Arial" font-size="10.00"># PlanPizzaMaking() : abstract</text>
<text text-anchor="start" x="1202.5" y="-583" font-family="Arial" font-size="10.00"># CookPizza()</text>
<text text-anchor="start" x="1202.5" y="-572" font-family="Arial" font-size="10.00"># GetPizza()</text>
</g>
<!-- IPizzaOven&#45;&gt;PizzaOven -->
<g id="edge19" class="edge">
<title>IPizzaOven&#45;&gt;PizzaOven</title>
<path fill="none" stroke="black" d="M1514.83,-495.13C1474.13,-513.39 1408.34,-542.92 1355.2,-566.76"/>
<polygon fill="black" stroke="black" points="1353.47,-563.71 1345.77,-571 1356.33,-570.09 1353.47,-563.71"/>
<text text-anchor="middle" x="1493" y="-518.3" font-family="Arial" font-size="9.00">implements</text>
</g>
<!-- NormalPizzaOven -->
<g id="node34" class="node">
<title>NormalPizzaOven</title>
<polygon fill="none" stroke="black" points="1043,-722 1043,-760 1139,-760 1139,-722 1043,-722"/>
<text text-anchor="middle" x="1091" y="-748" font-family="Arial" font-size="10.00">NormalPizzaOven</text>
<polyline fill="none" stroke="black" points="1043,-741 1139,-741 "/>
<text text-anchor="start" x="1051" y="-729" font-family="Arial" font-size="10.00">+ Capacity = 4</text>
</g>
<!-- PizzaOven&#45;&gt;NormalPizzaOven -->
<g id="edge20" class="edge">
<title>PizzaOven&#45;&gt;NormalPizzaOven</title>
<path fill="none" stroke="black" d="M1200.11,-647.13C1182.57,-658.18 1164.16,-670.68 1148,-683.5 1136.26,-692.81 1124.32,-704.28 1114.42,-714.44"/>
<polygon fill="black" stroke="black" points="1111.67,-712.25 1107.29,-721.9 1116.73,-717.09 1111.67,-712.25"/>
<text text-anchor="middle" x="1185.5" y="-668.3" font-family="Arial" font-size="9.00">inherits</text>
</g>
<!-- AssemblyLinePizzaOven -->
<g id="node35" class="node">
<title>AssemblyLinePizzaOven</title>
<polygon fill="none" stroke="black" points="1157,-716.5 1157,-765.5 1283,-765.5 1283,-716.5 1157,-716.5"/>
<text text-anchor="middle" x="1220" y="-753.5" font-family="Arial" font-size="10.00">AssemblyLinePizzaOven</text>
<polyline fill="none" stroke="black" points="1157,-746.5 1283,-746.5 "/>
<text text-anchor="start" x="1165" y="-734.5" font-family="Arial" font-size="10.00">+ Capacity = 1</text>
<text text-anchor="start" x="1165" y="-723.5" font-family="Arial" font-size="10.00">+ SetupTimeMinutes = 7</text>
</g>
<!-- PizzaOven&#45;&gt;AssemblyLinePizzaOven -->
<g id="edge21" class="edge">
<title>PizzaOven&#45;&gt;AssemblyLinePizzaOven</title>
<path fill="none" stroke="black" d="M1254.86,-647.27C1247.68,-666.36 1239.21,-688.89 1232.42,-706.96"/>
<polygon fill="black" stroke="black" points="1229.08,-705.9 1228.84,-716.5 1235.63,-708.37 1229.08,-705.9"/>
<text text-anchor="middle" x="1262.5" y="-668.3" font-family="Arial" font-size="9.00">inherits</text>
</g>
<!-- GiantRevolvingPizzaOven -->
<g id="node36" class="node">
<title>GiantRevolvingPizzaOven</title>
<polygon fill="none" stroke="black" points="1301.5,-722 1301.5,-760 1432.5,-760 1432.5,-722 1301.5,-722"/>
<text text-anchor="middle" x="1367" y="-748" font-family="Arial" font-size="10.00">GiantRevolvingPizzaOven</text>
<polyline fill="none" stroke="black" points="1301.5,-741 1432.5,-741 "/>
<text text-anchor="start" x="1309.5" y="-729" font-family="Arial" font-size="10.00">+ Capacity = 120</text>
</g>
<!-- PizzaOven&#45;&gt;GiantRevolvingPizzaOven -->
<g id="edge22" class="edge">
<title>PizzaOven&#45;&gt;GiantRevolvingPizzaOven</title>
<path fill="none" stroke="black" d="M1299.37,-647.27C1315.03,-668.75 1333.87,-694.58 1347.68,-713.52"/>
<polygon fill="black" stroke="black" points="1344.93,-715.68 1353.65,-721.69 1350.58,-711.55 1344.93,-715.68"/>
<text text-anchor="middle" x="1333.5" y="-668.3" font-family="Arial" font-size="9.00">inherits</text>
</g>
<!-- Pizza -->
<g id="node37" class="node">
<title>Pizza</title>
<polygon fill="none" stroke="black" points="2256.5,-71 2256.5,-109 2387.5,-109 2387.5,-71 2256.5,-71"/>
<text text-anchor="middle" x="2322" y="-97" font-family="Arial" font-size="10.00">abstract Pizza</text>
<polyline fill="none" stroke="black" points="2256.5,-90 2387.5,-90 "/>
<text text-anchor="start" x="2264.5" y="-78" font-family="Arial" font-size="10.00">+ Type : PizzaRecipeType</text>
</g>
<!-- StandardPizza -->
<g id="node38" class="node">
<title>StandardPizza</title>
<polygon fill="none" stroke="black" points="2363,-208 2363,-244 2443,-244 2443,-208 2363,-208"/>
<text text-anchor="middle" x="2403" y="-223.5" font-family="Arial" font-size="10.00">StandardPizza</text>
</g>
<!-- Pizza&#45;&gt;StandardPizza -->
<g id="edge23" class="edge">
<title>Pizza&#45;&gt;StandardPizza</title>
<path fill="none" stroke="black" d="M2332.92,-109.07C2346.91,-132.2 2371.23,-172.45 2387.23,-198.91"/>
<polygon fill="black" stroke="black" points="2384.34,-200.89 2392.51,-207.64 2390.33,-197.27 2384.34,-200.89"/>
<text text-anchor="middle" x="2382.5" y="-161.8" font-family="Arial" font-size="9.00">inherits</text>
</g>
<!-- ExtremelyTastyPizza -->
<g id="node39" class="node">
<title>ExtremelyTastyPizza</title>
<polygon fill="none" stroke="black" points="2235,-208 2235,-244 2345,-244 2345,-208 2235,-208"/>
<text text-anchor="middle" x="2290" y="-223.5" font-family="Arial" font-size="10.00">ExtremelyTastyPizza</text>
</g>
<!-- Pizza&#45;&gt;ExtremelyTastyPizza -->
<g id="edge24" class="edge">
<title>Pizza&#45;&gt;ExtremelyTastyPizza</title>
<path fill="none" stroke="black" d="M2317.68,-109.07C2312.23,-131.9 2302.8,-171.4 2296.48,-197.86"/>
<polygon fill="black" stroke="black" points="2293.06,-197.1 2294.15,-207.64 2299.87,-198.72 2293.06,-197.1"/>
<text text-anchor="middle" x="2320.5" y="-161.8" font-family="Arial" font-size="9.00">inherits</text>
</g>
<!-- OrderingController -->
<g id="node40" class="node">
<title>OrderingController</title>
<polygon fill="none" stroke="black" points="1878.5,-71 1878.5,-109 1983.5,-109 1983.5,-71 1878.5,-71"/>
<text text-anchor="middle" x="1931" y="-97" font-family="Arial" font-size="10.00">OrderingController</text>
<polyline fill="none" stroke="black" points="1878.5,-90 1983.5,-90 "/>
<text text-anchor="start" x="1886.5" y="-78" font-family="Arial" font-size="10.00">+ PlacePizzaOrder()</text>
</g>
<!-- OrderingController&#45;&gt;IOrderingService -->
<g id="edge25" class="edge">
<title>OrderingController&#45;&gt;IOrderingService</title>
<path fill="none" stroke="black" d="M1912.93,-109.07C1889.39,-132.61 1848.14,-173.86 1821.72,-200.28"/>
<polygon fill="black" stroke="black" points="1818.96,-198.09 1814.36,-207.64 1823.91,-203.04 1818.96,-198.09"/>
<text text-anchor="middle" x="1869" y="-161.8" font-family="Arial" font-size="9.00">uses</text>
</g>
<!-- MenuController -->
<g id="node41" class="node">
<title>MenuController</title>
<polygon fill="none" stroke="black" points="2001.5,-71 2001.5,-109 2084.5,-109 2084.5,-71 2001.5,-71"/>
<text text-anchor="middle" x="2043" y="-97" font-family="Arial" font-size="10.00">MenuController</text>
<polyline fill="none" stroke="black" points="2001.5,-90 2084.5,-90 "/>
<text text-anchor="start" x="2009.5" y="-78" font-family="Arial" font-size="10.00">+ GetMenu()</text>
</g>
<!-- MenuController&#45;&gt;IMenuService -->
<g id="edge26" class="edge">
<title>MenuController&#45;&gt;IMenuService</title>
<path fill="none" stroke="black" d="M2043,-109.07C2043,-131.8 2043,-171.05 2043,-197.51"/>
<polygon fill="black" stroke="black" points="2039.5,-197.64 2043,-207.64 2046.5,-197.64 2039.5,-197.64"/>
<text text-anchor="middle" x="2053" y="-161.8" font-family="Arial" font-size="9.00">uses</text>
</g>
<!-- RestockingController -->
<g id="node42" class="node">
<title>RestockingController</title>
<polygon fill="none" stroke="black" points="2103,-71 2103,-109 2211,-109 2211,-71 2103,-71"/>
<text text-anchor="middle" x="2157" y="-97" font-family="Arial" font-size="10.00">RestockingController</text>
<polyline fill="none" stroke="black" points="2103,-90 2211,-90 "/>
<text text-anchor="start" x="2111" y="-78" font-family="Arial" font-size="10.00">+ Restock()</text>
</g>
<!-- RestockingController&#45;&gt;IStockRepository -->
<g id="edge27" class="edge">
<title>RestockingController&#45;&gt;IStockRepository</title>
<path fill="none" stroke="black" d="M2160.11,-109.14C2164.23,-134.85 2171,-183.36 2171,-225 2171,-225 2171,-225 2171,-607 2171,-645.05 2146.81,-681.71 2125.2,-706.88"/>
<polygon fill="black" stroke="black" points="2122.33,-704.83 2118.31,-714.63 2127.57,-709.48 2122.33,-704.83"/>
<text text-anchor="middle" x="2181" y="-431.3" font-family="Arial" font-size="9.00">uses</text>
</g>
<!-- WelcomeController -->
<g id="node43" class="node">
<title>WelcomeController</title>
<polygon fill="none" stroke="black" points="1761.5,-71 1761.5,-109 1860.5,-109 1860.5,-71 1761.5,-71"/>
<text text-anchor="middle" x="1811" y="-97" font-family="Arial" font-size="10.00">WelcomeController</text>
<polyline fill="none" stroke="black" points="1761.5,-90 1860.5,-90 "/>
<text text-anchor="start" x="1769.5" y="-78" font-family="Arial" font-size="10.00">+ Greet()</text>
</g>
<!-- PizzaHelperExtensions -->
<g id="node44" class="node">
<title>PizzaHelperExtensions</title>
<polygon fill="none" stroke="black" points="2706.5,-60 2706.5,-120 2849.5,-120 2849.5,-60 2706.5,-60"/>
<text text-anchor="middle" x="2778" y="-108" font-family="Arial" font-size="10.00">PizzaHelperExtensions</text>
<polyline fill="none" stroke="black" points="2706.5,-101 2849.5,-101 "/>
<text text-anchor="start" x="2714.5" y="-89" font-family="Arial" font-size="10.00">+ GetRequiredStock()</text>
<text text-anchor="start" x="2714.5" y="-78" font-family="Arial" font-size="10.00">+ GatherSameTypeOfStock()</text>
<text text-anchor="start" x="2714.5" y="-67" font-family="Arial" font-size="10.00">+ HasEnough()</text>
</g>
<!-- StringExtensions -->
<g id="node45" class="node">
<title>StringExtensions</title>
<polygon fill="none" stroke="black" points="2597.5,-72 2597.5,-108 2688.5,-108 2688.5,-72 2597.5,-72"/>
<text text-anchor="middle" x="2643" y="-92" font-family="Arial" font-size="10.00">StringExtensions</text>
<polyline fill="none" stroke="black" points="2597.5,-81 2688.5,-81 "/>
</g>
<!-- EnumerableExtension -->
<g id="node46" class="node">
<title>EnumerableExtension</title>
<polygon fill="none" stroke="black" points="2467,-72 2467,-108 2579,-108 2579,-72 2467,-72"/>
<text text-anchor="middle" x="2523" y="-92" font-family="Arial" font-size="10.00">EnumerableExtension</text>
<polyline fill="none" stroke="black" points="2467,-81 2579,-81 "/>
</g>
</g>
</svg>
