<?xml version="1.0" encoding="UTF-8" standalone="no"?>
<!DOCTYPE svg PUBLIC "-//W3C//DTD SVG 1.1//EN"
 "http://www.w3.org/Graphics/SVG/1.1/DTD/svg11.dtd">
<!-- Generated by graphviz version 2.42.4 (0)
 -->
<!-- Title: PackageDiagram Pages: 1 -->
<svg width="1284pt" height="461pt"
 viewBox="0.00 0.00 1284.00 460.61" xmlns="http://www.w3.org/2000/svg" xmlns:xlink="http://www.w3.org/1999/xlink">
<g id="graph0" class="graph" transform="scale(1 1) rotate(0) translate(4 456.61)">
<title>PackageDiagram</title>
<polygon fill="white" stroke="transparent" points="-4,4 -4,-456.61 1280,-456.61 1280,4 -4,4"/>
<g id="clust1" class="cluster">
<title>cluster_pizzaplace</title>
<polygon fill="lightblue" stroke="lightblue" points="287,-39 287,-416 1268,-416 1268,-39 287,-39"/>
<text text-anchor="middle" x="777.5" y="-400.8" font-family="Times,serif" font-size="14.00">PizzaPlace</text>
</g>
<g id="clust2" class="cluster">
<title>cluster_controllers_pkg</title>
<polygon fill="lightgreen" stroke="lightgreen" points="295,-250 295,-325 392,-325 392,-250 295,-250"/>
<text text-anchor="middle" x="343.5" y="-309.8" font-family="Times,serif" font-size="14.00">Controllers</text>
</g>
<g id="clust3" class="cluster">
<title>cluster_services_pkg</title>
<polygon fill="lightblue" stroke="lightblue" points="442,-250 442,-325 521,-325 521,-250 442,-250"/>
<text text-anchor="middle" x="481.5" y="-309.8" font-family="Times,serif" font-size="14.00">Services</text>
</g>
<g id="clust4" class="cluster">
<title>cluster_factories_pkg</title>
<polygon fill="lightyellow" stroke="lightyellow" points="571,-259 571,-334 654,-334 654,-259 571,-259"/>
<text text-anchor="middle" x="612.5" y="-318.8" font-family="Times,serif" font-size="14.00">Factories</text>
</g>
<g id="clust5" class="cluster">
<title>cluster_repositories_pkg</title>
<polygon fill="lightcyan" stroke="lightcyan" points="865,-178 865,-253 971,-253 971,-178 865,-178"/>
<text text-anchor="middle" x="918" y="-237.8" font-family="Times,serif" font-size="14.00">Repositories</text>
</g>
<g id="clust6" class="cluster">
<title>cluster_models_pkg</title>
<polygon fill="lavender" stroke="lavender" points="1174,-178 1174,-338 1260,-338 1260,-178 1174,-178"/>
<text text-anchor="middle" x="1217" y="-322.8" font-family="Times,serif" font-size="14.00">Models</text>
</g>
<g id="clust7" class="cluster">
<title>cluster_types_pkg</title>
<polygon fill="plum" stroke="plum" points="1182,-232 1182,-307 1252,-307 1252,-232 1182,-232"/>
<text text-anchor="middle" x="1217" y="-291.8" font-family="Times,serif" font-size="14.00">Types</text>
</g>
<g id="clust8" class="cluster">
<title>cluster_pizzas_pkg</title>
<polygon fill="honeydew" stroke="honeydew" points="883,-300 883,-375 953,-375 953,-300 883,-300"/>
<text text-anchor="middle" x="918" y="-359.8" font-family="Times,serif" font-size="14.00">Pizzas</text>
</g>
<g id="clust9" class="cluster">
<title>cluster_extensions_pkg</title>
<polygon fill="lightgray" stroke="lightgray" points="871,-95 871,-170 966,-170 966,-95 871,-95"/>
<text text-anchor="middle" x="918.5" y="-154.8" font-family="Times,serif" font-size="14.00">Extensions</text>
</g>
<g id="clust10" class="cluster">
<title>cluster_test</title>
<polygon fill="lightpink" stroke="lightpink" points="50.5,-46 50.5,-337 188.5,-337 188.5,-46 50.5,-46"/>
<text text-anchor="middle" x="119.5" y="-321.8" font-family="Times,serif" font-size="14.00">PizzaPlace.Test</text>
</g>
<!-- PizzaSolution -->
<g id="node1" class="node">
<title>PizzaSolution</title>
<polygon fill="lightgray" stroke="black" points="165,-36 162,-40 141,-40 138,-36 74,-36 74,0 165,0 165,-36"/>
<text text-anchor="middle" x="119.5" y="-14.9" font-family="Arial" font-size="12.00">PizzaSolution</text>
</g>
<!-- Controllers -->
<g id="node2" class="node">
<title>Controllers</title>
<polygon fill="palegreen" stroke="black" points="381,-294 306,-294 306,-258 381,-258 381,-294"/>
<text text-anchor="middle" x="343.5" y="-272.9" font-family="Arial" font-size="12.00">Controllers</text>
</g>
<!-- Services -->
<g id="node3" class="node">
<title>Services</title>
<polygon fill="lightskyblue" stroke="black" points="513,-294 450,-294 450,-258 513,-258 513,-294"/>
<text text-anchor="middle" x="481.5" y="-272.9" font-family="Arial" font-size="12.00">Services</text>
</g>
<!-- Controllers&#45;&gt;Services -->
<g id="edge1" class="edge">
<title>Controllers&#45;&gt;Services</title>
<path fill="none" stroke="black" stroke-dasharray="5,2" d="M381.3,-276C399.27,-276 420.96,-276 439.46,-276"/>
<polygon fill="black" stroke="black" points="439.65,-279.5 449.65,-276 439.65,-272.5 439.65,-279.5"/>
<text text-anchor="middle" x="421" y="-279" font-family="Arial" font-size="10.00">uses</text>
</g>
<!-- Repositories -->
<g id="node5" class="node">
<title>Repositories</title>
<polygon fill="lightcyan" stroke="black" points="960,-222 876,-222 876,-186 960,-186 960,-222"/>
<text text-anchor="middle" x="918" y="-200.9" font-family="Arial" font-size="12.00">Repositories</text>
</g>
<!-- Controllers&#45;&gt;Repositories -->
<g id="edge2" class="edge">
<title>Controllers&#45;&gt;Repositories</title>
<path fill="none" stroke="black" stroke-dasharray="5,2" d="M381.23,-263.46C399.37,-257.59 421.67,-250.84 442,-246 592.91,-210.07 777.39,-204.24 865.44,-203.69"/>
<polygon fill="black" stroke="black" points="865.71,-207.19 875.69,-203.65 865.68,-200.19 865.71,-207.19"/>
<text text-anchor="middle" x="542" y="-230" font-family="Arial" font-size="10.00">uses</text>
</g>
<!-- Factories -->
<g id="node4" class="node">
<title>Factories</title>
<polygon fill="lightyellow" stroke="black" points="645,-303 579,-303 579,-267 645,-267 645,-303"/>
<text text-anchor="middle" x="612" y="-281.9" font-family="Arial" font-size="12.00">Factories</text>
</g>
<!-- Services&#45;&gt;Factories -->
<g id="edge4" class="edge">
<title>Services&#45;&gt;Factories</title>
<path fill="none" stroke="black" stroke-dasharray="5,2" d="M513.28,-278.16C529.87,-279.32 550.58,-280.77 568.67,-282.04"/>
<polygon fill="black" stroke="black" points="568.46,-285.53 578.68,-282.74 568.95,-278.55 568.46,-285.53"/>
<text text-anchor="middle" x="542" y="-283" font-family="Arial" font-size="10.00">uses</text>
</g>
<!-- Services&#45;&gt;Repositories -->
<g id="edge3" class="edge">
<title>Services&#45;&gt;Repositories</title>
<path fill="none" stroke="black" stroke-dasharray="5,2" d="M513.09,-262.95C529.9,-256.29 551.28,-248.64 571,-244 674.02,-219.77 797.89,-209.97 865.96,-206.2"/>
<polygon fill="black" stroke="black" points="866.19,-209.69 875.99,-205.67 865.82,-202.7 866.19,-209.69"/>
<text text-anchor="middle" x="612" y="-247" font-family="Arial" font-size="10.00">uses</text>
</g>
<!-- Models -->
<g id="node6" class="node">
<title>Models</title>
<polygon fill="lavender" stroke="black" points="1245,-222 1189,-222 1189,-186 1245,-186 1245,-222"/>
<text text-anchor="middle" x="1217" y="-200.9" font-family="Arial" font-size="12.00">Models</text>
</g>
<!-- Services&#45;&gt;Models -->
<g id="edge5" class="edge">
<title>Services&#45;&gt;Models</title>
<path fill="none" stroke="black" stroke-dasharray="5,2" d="M503.73,-294.08C520.89,-307.87 546.19,-326.4 571,-338 789.85,-440.3 912.73,-514.09 1113,-379 1120.5,-373.94 1168.05,-234.82 1174,-228 1175.92,-225.81 1178.08,-223.77 1180.4,-221.88"/>
<polygon fill="black" stroke="black" points="1182.53,-224.66 1188.7,-216.05 1178.5,-218.93 1182.53,-224.66"/>
<text text-anchor="middle" x="688.5" y="-401" font-family="Arial" font-size="10.00">uses</text>
</g>
<!-- Factories&#45;&gt;Repositories -->
<g id="edge7" class="edge">
<title>Factories&#45;&gt;Repositories</title>
<path fill="none" stroke="black" stroke-dasharray="5,2" d="M645.22,-272.19C653.85,-268.98 663.22,-265.68 672,-263 738.15,-242.78 816.04,-225.03 865.94,-214.41"/>
<polygon fill="black" stroke="black" points="866.78,-217.81 875.84,-212.32 865.34,-210.97 866.78,-217.81"/>
<text text-anchor="middle" x="688.5" y="-266" font-family="Arial" font-size="10.00">uses</text>
</g>
<!-- Factories&#45;&gt;Models -->
<g id="edge6" class="edge">
<title>Factories&#45;&gt;Models</title>
<path fill="none" stroke="black" stroke-dasharray="5,2" d="M645.03,-284.94C740.88,-284.5 1024.28,-281.13 1113,-257 1126.51,-253.33 1155.78,-237.97 1179.68,-224.73"/>
<polygon fill="black" stroke="black" points="1181.51,-227.72 1188.54,-219.79 1178.1,-221.61 1181.51,-227.72"/>
<text text-anchor="middle" x="918" y="-287" font-family="Arial" font-size="10.00">uses</text>
</g>
<!-- Pizzas -->
<g id="node8" class="node">
<title>Pizzas</title>
<polygon fill="lightgreen" stroke="black" points="945,-344 891,-344 891,-308 945,-308 945,-344"/>
<text text-anchor="middle" x="918" y="-322.9" font-family="Arial" font-size="12.00">Pizzas</text>
</g>
<!-- Factories&#45;&gt;Pizzas -->
<g id="edge8" class="edge">
<title>Factories&#45;&gt;Pizzas</title>
<path fill="none" stroke="black" stroke-dasharray="5,2" d="M645.25,-289.35C702.33,-297.05 820.78,-313.02 880.66,-321.1"/>
<polygon fill="black" stroke="black" points="880.41,-324.6 890.79,-322.47 881.35,-317.66 880.41,-324.6"/>
<text text-anchor="middle" x="688.5" y="-300" font-family="Arial" font-size="10.00">creates</text>
</g>
<!-- Repositories&#45;&gt;Models -->
<g id="edge9" class="edge">
<title>Repositories&#45;&gt;Models</title>
<path fill="none" stroke="black" stroke-dasharray="5,2" d="M960.3,-204C1018.25,-204 1122.83,-204 1178.6,-204"/>
<polygon fill="black" stroke="black" points="1178.75,-207.5 1188.75,-204 1178.75,-200.5 1178.75,-207.5"/>
<text text-anchor="middle" x="1148.5" y="-207" font-family="Arial" font-size="10.00">uses</text>
</g>
<!-- Types -->
<g id="node7" class="node">
<title>Types</title>
<polygon fill="plum" stroke="black" points="1244,-276 1190,-276 1190,-240 1244,-240 1244,-276"/>
<text text-anchor="middle" x="1217" y="-254.9" font-family="Arial" font-size="12.00">Types</text>
</g>
<!-- Extensions -->
<g id="node9" class="node">
<title>Extensions</title>
<polygon fill="lightgray" stroke="black" points="956,-139 880,-139 880,-103 956,-103 956,-139"/>
<text text-anchor="middle" x="918" y="-117.9" font-family="Arial" font-size="12.00">Extensions</text>
</g>
<!-- Extensions&#45;&gt;Models -->
<g id="edge10" class="edge">
<title>Extensions&#45;&gt;Models</title>
<path fill="none" stroke="black" stroke-dasharray="1,5" d="M956.34,-130.91C1004.8,-143.85 1091.92,-167.4 1166,-189 1170.16,-190.21 1174.51,-191.5 1178.83,-192.78"/>
<polygon fill="black" stroke="black" points="1178.19,-196.24 1188.78,-195.75 1180.19,-189.53 1178.19,-196.24"/>
<text text-anchor="middle" x="1148.5" y="-192" font-family="Arial" font-size="10.00">extends</text>
</g>
<!-- Core -->
<g id="node10" class="node">
<title>Core</title>
<polygon fill="lightyellow" stroke="black" points="723,-48 723,-84 1113,-84 1113,-48 723,-48"/>
<text text-anchor="middle" x="918" y="-62.9" font-family="Arial" font-size="12.00">Core\n(PizzaException,\nComparableList,\nPizzaAmount,\nMenuItem)</text>
</g>
<!-- Core&#45;&gt;Models -->
<g id="edge11" class="edge">
<title>Core&#45;&gt;Models</title>
<path fill="none" stroke="black" stroke-dasharray="5,2" d="M1098.11,-84.1C1103.21,-86.2 1108.18,-88.49 1113,-91 1151.08,-110.82 1182.15,-150.69 1199.87,-177.37"/>
<polygon fill="black" stroke="black" points="1197,-179.37 1205.36,-185.87 1202.87,-175.57 1197,-179.37"/>
<text text-anchor="middle" x="1148.5" y="-135" font-family="Arial" font-size="10.00">uses</text>
</g>
<!-- TestControllers -->
<g id="node11" class="node">
<title>TestControllers</title>
<polygon fill="mistyrose" stroke="black" points="176,-306 63,-306 63,-270 176,-270 176,-306"/>
<text text-anchor="middle" x="119.5" y="-284.9" font-family="Arial" font-size="12.00">Controllers\nTests</text>
</g>
<!-- TestControllers&#45;&gt;Controllers -->
<g id="edge12" class="edge">
<title>TestControllers&#45;&gt;Controllers</title>
<path fill="none" stroke="red" stroke-dasharray="1,5" d="M176.23,-284.99C213.02,-283 260.67,-280.42 295.52,-278.54"/>
<polygon fill="red" stroke="red" points="296.1,-282.01 305.9,-277.98 295.73,-275.02 296.1,-282.01"/>
<text text-anchor="middle" x="268" y="-283" font-family="Arial" font-size="10.00">tests</text>
</g>
<!-- TestServices -->
<g id="node12" class="node">
<title>TestServices</title>
<polygon fill="mistyrose" stroke="black" points="170,-252 69,-252 69,-216 170,-216 170,-252"/>
<text text-anchor="middle" x="119.5" y="-230.9" font-family="Arial" font-size="12.00">Services\nTests</text>
</g>
<!-- TestServices&#45;&gt;Services -->
<g id="edge13" class="edge">
<title>TestServices&#45;&gt;Services</title>
<path fill="none" stroke="red" stroke-dasharray="1,5" d="M170.25,-227.89C225.24,-222.58 316.08,-218.12 392,-235 408.84,-238.74 426.29,-246 441.2,-253.38"/>
<polygon fill="red" stroke="red" points="439.63,-256.51 450.12,-257.96 442.82,-250.28 439.63,-256.51"/>
<text text-anchor="middle" x="343.5" y="-238" font-family="Arial" font-size="10.00">tests</text>
</g>
<!-- TestFactories -->
<g id="node13" class="node">
<title>TestFactories</title>
<polygon fill="mistyrose" stroke="black" points="171.5,-198 67.5,-198 67.5,-162 171.5,-162 171.5,-198"/>
<text text-anchor="middle" x="119.5" y="-176.9" font-family="Arial" font-size="12.00">Factories\nTests</text>
</g>
<!-- TestFactories&#45;&gt;Factories -->
<g id="edge14" class="edge">
<title>TestFactories&#45;&gt;Factories</title>
<path fill="none" stroke="red" stroke-dasharray="1,5" d="M171.61,-169.85C258.55,-155.6 437.05,-139.71 553,-221 568.3,-231.73 558.7,-244.93 571,-259 571.22,-259.26 571.45,-259.51 571.68,-259.77"/>
<polygon fill="red" stroke="red" points="569.38,-262.41 579.07,-266.68 574.17,-257.3 569.38,-262.41"/>
<text text-anchor="middle" x="421" y="-173" font-family="Arial" font-size="10.00">tests</text>
</g>
<!-- TestRepositories -->
<g id="node14" class="node">
<title>TestRepositories</title>
<polygon fill="mistyrose" stroke="black" points="180.5,-144 58.5,-144 58.5,-108 180.5,-108 180.5,-144"/>
<text text-anchor="middle" x="119.5" y="-122.9" font-family="Arial" font-size="12.00">Repositories\nTests</text>
</g>
<!-- TestRepositories&#45;&gt;Repositories -->
<g id="edge15" class="edge">
<title>TestRepositories&#45;&gt;Repositories</title>
<path fill="none" stroke="red" stroke-dasharray="1,5" d="M180.77,-130.18C225.4,-132.92 287.72,-136 342.5,-136 342.5,-136 342.5,-136 613,-136 664.72,-136 672.8,-161.55 723,-174 770.67,-185.82 826.16,-193.84 865.54,-198.59"/>
<polygon fill="red" stroke="red" points="865.36,-202.09 875.7,-199.79 866.18,-195.14 865.36,-202.09"/>
<text text-anchor="middle" x="481.5" y="-139" font-family="Arial" font-size="10.00">tests</text>
</g>
<!-- TestExtensions -->
<g id="node15" class="node">
<title>TestExtensions</title>
<polygon fill="mistyrose" stroke="black" points="168.5,-90 70.5,-90 70.5,-54 168.5,-54 168.5,-90"/>
<text text-anchor="middle" x="119.5" y="-68.9" font-family="Arial" font-size="12.00">TestExtensions</text>
</g>
<!-- TestExtensions&#45;&gt;Extensions -->
<g id="edge16" class="edge">
<title>TestExtensions&#45;&gt;Extensions</title>
<path fill="none" stroke="red" stroke-dasharray="1,5" d="M168.56,-74.05C213.52,-75.79 282.55,-78 342.5,-78 342.5,-78 342.5,-78 613,-78 662.77,-78 673.79,-91.52 723,-99 772.84,-106.57 830.24,-112.77 869.6,-116.64"/>
<polygon fill="red" stroke="red" points="869.41,-120.13 879.7,-117.62 870.08,-113.17 869.41,-120.13"/>
<text text-anchor="middle" x="481.5" y="-81" font-family="Arial" font-size="10.00">tests</text>
</g>
<!-- TestProject -->
<g id="node16" class="node">
<title>TestProject</title>
<polygon fill="lightpink" stroke="black" points="239,-381 236,-385 215,-385 212,-381 0,-381 0,-345 239,-345 239,-381"/>
<text text-anchor="middle" x="119.5" y="-359.9" font-family="Arial" font-size="12.00">PizzaPlace.Test\n(references PizzaPlace)</text>
</g>
</g>
</svg>
